<svg xmlns="http://www.w3.org/2000/svg" xmlns:xlink="http://www.w3.org/1999/xlink" style="margin:auto;display:block;z-index:1;position:relative" preserveAspectRatio="xMidYMid" viewBox="0 0 706 229">
<g transform="translate(353,114.5) scale(1,1) translate(-353,-114.5)"><path id="path0" d="M 285.30626435568394 123.3793244170206
c 0 22.007096868042865 -5.384715191116871 6.321187398267631 -11.705902589384502 6.321187398267631
S 261.89445917691495 145.38642128506348 261.89445917691495 123.3793244170206
s 5.384715191116871 -6.321187398267631 11.705902589384502 -6.321187398267631
S 285.30626435568394 101.37222754897773 285.30626435568394 123.3793244170206
z" fill="none" stroke="none"></path>
<circle cx="0" cy="0" r="1.9882811541525212" fill="#07d200">
  <animateMotion begin="-0.109483594581677s" dur="1s" repeatCount="indefinite">
    <mpath xlink:href="#path0"></mpath>
  </animateMotion>
</circle><path id="path1" d="M 354.60917529540325 46.37601279573485
c 0 33.22113979365962 -8.128576758023097 9.54224228115755 -17.670819039180646 9.54224228115755
S 319.267537217042 79.59715258939447 319.267537217042 46.37601279573485
s 8.128576758023097 -9.54224228115755 17.670819039180646 -9.54224228115755
S 354.60917529540325 13.154873002075234 354.60917529540325 46.37601279573485
z" fill="none" stroke="none"></path>
<circle cx="0" cy="0" r="2.50777789421429" fill="#07d200">
  <animateMotion begin="-0.3630942203794665s" dur="1s" repeatCount="indefinite">
    <mpath xlink:href="#path1"></mpath>
  </animateMotion>
</circle><path id="path2" d="M 77.49216259938858 154.97664731002578
c 0 20.1374964082009 -4.9272597594534115 5.784174500227918 -10.71143425968133 5.784174500227918
S 56.06929408002593 175.11414371822667 56.06929408002593 154.97664731002578
s 4.9272597594534115 -5.784174500227918 10.71143425968133 -5.784174500227918
S 77.49216259938858 134.8391509018249 77.49216259938858 154.97664731002578
z" fill="none" stroke="none"></path>
<circle cx="0" cy="0" r="2.2916682502626573" fill="#707070">
  <animateMotion begin="-0.8840959068018948s" dur="1s" repeatCount="indefinite">
    <mpath xlink:href="#path2"></mpath>
  </animateMotion>
</circle><path id="path3" d="M 291.36309678052476 45.81117092931013
c 0 21.42123930807521 -5.241367064741806 6.152909162957774 -11.39427622769958 6.152909162957774
S 268.57454432512554 67.23241023738534 268.57454432512554 45.81117092931013
s 5.241367064741806 -6.152909162957774 11.39427622769958 -6.152909162957774
S 291.36309678052476 24.38993162123492 291.36309678052476 45.81117092931013
z" fill="none" stroke="none"></path>
<circle cx="0" cy="0" r="2.1587004422832203" fill="#707070">
  <animateMotion begin="-0.28809334205287485s" dur="1s" repeatCount="indefinite">
    <mpath xlink:href="#path3"></mpath>
  </animateMotion>
</circle><path id="path4" d="M 697.4859124651988 211.5322246215266
c 0 28.071536391050614 -6.868567414831532 8.063100878280496 -14.931668293112029 8.063100878280496
S 667.6225758789748 239.60376101257722 667.6225758789748 211.5322246215266
s 6.868567414831532 -8.063100878280496 14.931668293112029 -8.063100878280496
S 697.4859124651988 183.460688230476 697.4859124651988 211.5322246215266
z" fill="none" stroke="none"></path>
<circle cx="0" cy="0" r="2.4588087659310425" fill="#707070">
  <animateMotion begin="-0.8405300088356098s" dur="1s" repeatCount="indefinite">
    <mpath xlink:href="#path4"></mpath>
  </animateMotion>
</circle><path id="path5" d="M 321.4090191102776 172.38096790546922
c 0 19.48826206827636 -4.76840454862081 5.59769229620704 -10.366096844827851 5.59769229620704
S 300.6768254206219 191.86922997374558 300.6768254206219 172.38096790546922
s 4.76840454862081 -5.59769229620704 10.366096844827851 -5.59769229620704
S 321.4090191102776 152.89270583719286 321.4090191102776 172.38096790546922
z" fill="none" stroke="none"></path>
<circle cx="0" cy="0" r="2.641902946199432" fill="#07d200">
  <animateMotion begin="-0.6186498612216578s" dur="1s" repeatCount="indefinite">
    <mpath xlink:href="#path5"></mpath>
  </animateMotion>
</circle><path id="path6" d="M 464.7137659163025 48.48870317139194
c 0 19.65008524857427 -4.80799958209796 5.644173422462823 -10.452173004560784 5.644173422462823
S 443.80941990718094 68.1387884199662 443.80941990718094 48.48870317139194
s 4.80799958209796 -5.644173422462823 10.452173004560784 -5.644173422462823
S 464.7137659163025 28.83861792281767 464.7137659163025 48.48870317139194
z" fill="none" stroke="none"></path>
<circle cx="0" cy="0" r="1.5363583843921638" fill="#187700">
  <animateMotion begin="-0.2835563240882746s" dur="1s" repeatCount="indefinite">
    <mpath xlink:href="#path6"></mpath>
  </animateMotion>
</circle><path id="path7" d="M 191.47975996735016 166.48260816918818
c 0 31.608895047927835 -7.734091341514257 9.079150705255868 -16.813242046770124 9.079150705255868
S 157.85327587380993 198.091503217116 157.85327587380993 166.48260816918818
s 7.734091341514257 -9.079150705255868 16.813242046770124 -9.079150705255868
S 191.47975996735016 134.87371312126035 191.47975996735016 166.48260816918818
z" fill="none" stroke="none"></path>
<circle cx="0" cy="0" r="2.1433584206182563" fill="#373737">
  <animateMotion begin="-0.2289014753514409s" dur="1s" repeatCount="indefinite">
    <mpath xlink:href="#path7"></mpath>
  </animateMotion>
</circle><path id="path8" d="M 70.68482433918835 38.923148751600216
c 0 35.47675715830899 -8.680483134479859 10.190132375258965 -18.870615509738823 10.190132375258965
S 32.943593319710715 74.39990590990921 32.943593319710715 38.923148751600216
s 8.680483134479859 -10.190132375258965 18.870615509738823 -10.190132375258965
S 70.68482433918835 3.4463915932912244 70.68482433918835 38.923148751600216
z" fill="none" stroke="none"></path>
<circle cx="0" cy="0" r="2.205104636692406" fill="#187700">
  <animateMotion begin="-0.10636057005122712s" dur="1s" repeatCount="indefinite">
    <mpath xlink:href="#path8"></mpath>
  </animateMotion>
</circle><path id="path9" d="M 37.919674977676024 172.02643386986625
c 0 18.904259998992686 -4.6255104252854435 5.42994702098726 -10.055457446272705 5.42994702098726
S 17.808760085130615 190.93069386885895 17.808760085130615 172.02643386986625
s 4.6255104252854435 -5.42994702098726 10.055457446272705 -5.42994702098726
S 37.919674977676024 153.12217387087355 37.919674977676024 172.02643386986625
z" fill="none" stroke="none"></path>
<circle cx="0" cy="0" r="2.3231483159403608" fill="#707070">
  <animateMotion begin="-0.7028232194039601s" dur="1s" repeatCount="indefinite">
    <mpath xlink:href="#path9"></mpath>
  </animateMotion>
</circle><path id="path10" d="M 319.2997134068372 108.10873549269567
c 0 19.052864489269652 -4.661871098438319 5.472631289471071 -10.13450238790939 5.472631289471071
S 299.03070863101846 127.16159998196532 299.03070863101846 108.10873549269567
s 4.661871098438319 -5.472631289471071 10.13450238790939 -5.472631289471071
S 319.2997134068372 89.05587100342602 319.2997134068372 108.10873549269567
z" fill="none" stroke="none"></path>
<circle cx="0" cy="0" r="2.4849654492495956" fill="#187700">
  <animateMotion begin="-0.26518253455155527s" dur="1s" repeatCount="indefinite">
    <mpath xlink:href="#path10"></mpath>
  </animateMotion>
</circle><path id="path11" d="M 303.28317496679733 141.382250057212
c 0 32.98824902110362 -8.071592845589183 9.475348123082956 -17.54694096867214 9.475348123082956
S 268.1892930294531 174.37049907831562 268.1892930294531 141.382250057212
s 8.071592845589183 -9.475348123082956 17.54694096867214 -9.475348123082956
S 303.28317496679733 108.39400103610836 303.28317496679733 141.382250057212
z" fill="none" stroke="none"></path>
<circle cx="0" cy="0" r="2.9465427604994763" fill="#07d200">
  <animateMotion begin="-0.7595863620731769s" dur="1s" repeatCount="indefinite">
    <mpath xlink:href="#path11"></mpath>
  </animateMotion>
</circle><path id="path12" d="M 419.5373557243523 164.8754226067989
c 0 33.766108572214065 -8.261920182563015 9.698775866487019 -17.960696049050032 9.698775866487019
S 383.6159636262522 198.641531179013 383.6159636262522 164.8754226067989
s 8.261920182563015 -9.698775866487019 17.960696049050032 -9.698775866487019
S 419.5373557243523 131.10931403458483 419.5373557243523 164.8754226067989
z" fill="none" stroke="none"></path>
<circle cx="0" cy="0" r="2.8359895056647155" fill="#373737">
  <animateMotion begin="-0.31423550474329476s" dur="1s" repeatCount="indefinite">
    <mpath xlink:href="#path12"></mpath>
  </animateMotion>
</circle><path id="path13" d="M 162.74916329476883 46.31618971896984
c 0 29.81499541762267 -7.295158453248098 8.563881662508638 -15.859040115756738 8.563881662508638
S 131.03108306325538 76.1311851365925 131.03108306325538 46.31618971896984
s 7.295158453248098 -8.563881662508638 15.859040115756738 -8.563881662508638
S 162.74916329476883 16.50119430134717 162.74916329476883 46.31618971896984
z" fill="none" stroke="none"></path>
<circle cx="0" cy="0" r="2.818318579103905" fill="#07d200">
  <animateMotion begin="-0.4027687769415973s" dur="1s" repeatCount="indefinite">
    <mpath xlink:href="#path13"></mpath>
  </animateMotion>
</circle><path id="path14" d="M 256.8777114899379 25.783994101949308
c 0 31.435627329681825 -7.691696048751935 9.0293823181001 -16.721078366852034 9.0293823181001
S 223.43555475623384 57.21962143163113 223.43555475623384 25.783994101949308
s 7.691696048751935 -9.0293823181001 16.721078366852034 -9.0293823181001
S 256.8777114899379 -5.651633227732518 256.8777114899379 25.783994101949308
z" fill="none" stroke="none"></path>
<circle cx="0" cy="0" r="1.987020872658498" fill="#000000">
  <animateMotion begin="-0.5248356813405082s" dur="1s" repeatCount="indefinite">
    <mpath xlink:href="#path14"></mpath>
  </animateMotion>
</circle><path id="path15" d="M 258.89064917121317 149.0157309496578
c 0 24.171553239737875 -5.914316218233735 6.942892951839603 -12.857209170073338 6.942892951839603
S 233.1762308310665 173.18728418939568 233.1762308310665 149.0157309496578
s 5.914316218233735 -6.942892951839603 12.857209170073338 -6.942892951839603
S 258.89064917121317 124.84417770991993 258.89064917121317 149.0157309496578
z" fill="none" stroke="none"></path>
<circle cx="0" cy="0" r="1.8910538983464962" fill="#373737">
  <animateMotion begin="-0.6943457499045544s" dur="1s" repeatCount="indefinite">
    <mpath xlink:href="#path15"></mpath>
  </animateMotion>
</circle><path id="path16" d="M 105.67580202723104 216.96017523323226
c 0 32.41435844098954 -7.931172810029354 9.310507211773592 -17.241680021802946 9.310507211773592
S 71.19244198362514 249.3745336742218 71.19244198362514 216.96017523323226
s 7.931172810029354 -9.310507211773592 17.241680021802946 -9.310507211773592
S 105.67580202723104 184.54581679224273 105.67580202723104 216.96017523323226
z" fill="none" stroke="none"></path>
<circle cx="0" cy="0" r="1.52867593247597" fill="#707070">
  <animateMotion begin="-0.05348752718468086s" dur="1s" repeatCount="indefinite">
    <mpath xlink:href="#path16"></mpath>
  </animateMotion>
</circle><path id="path17" d="M 632.5685166385541 149.9093444284254
c 0 20.258058372567234 -4.9567589635004925 5.8188040006310136 -10.775562964131506 5.8188040006310136
S 611.0173907102911 170.16740280099265 611.0173907102911 149.9093444284254
s 4.9567589635004925 -5.8188040006310136 10.775562964131506 -5.8188040006310136
S 632.5685166385541 129.65128605585818 632.5685166385541 149.9093444284254
z" fill="none" stroke="none"></path>
<circle cx="0" cy="0" r="1.7869316803102682" fill="#07d200">
  <animateMotion begin="-0.6139732398687219s" dur="1s" repeatCount="indefinite">
    <mpath xlink:href="#path17"></mpath>
  </animateMotion>
</circle><path id="path18" d="M 125.5254975048549 154.9116029006599
c 0 36.65988186730954 -8.969971095192758 10.52996606826976 -19.49993716346252 10.52996606826976
S 86.52562317792986 191.57148476796942 86.52562317792986 154.9116029006599
s 8.969971095192758 -10.52996606826976 19.49993716346252 -10.52996606826976
S 125.5254975048549 118.25172103335035 125.5254975048549 154.9116029006599
z" fill="none" stroke="none"></path>
<circle cx="0" cy="0" r="1.8565240500095739" fill="#373737">
  <animateMotion begin="-0.25745186674519105s" dur="1s" repeatCount="indefinite">
    <mpath xlink:href="#path18"></mpath>
  </animateMotion>
</circle><path id="path19" d="M 537.492570500857 161.96833805941495
c 0 30.78164425476941 -7.5316789134010245 8.841536115731639 -16.373215029132663 8.841536115731639
S 504.7461404425917 192.74998231418436 504.7461404425917 161.96833805941495
s 7.5316789134010245 -8.841536115731639 16.373215029132663 -8.841536115731639
S 537.492570500857 131.18669380464553 537.492570500857 161.96833805941495
z" fill="none" stroke="none"></path>
<circle cx="0" cy="0" r="2.745198809703645" fill="#373737">
  <animateMotion begin="-0.6269827688519198s" dur="1s" repeatCount="indefinite">
    <mpath xlink:href="#path19"></mpath>
  </animateMotion>
</circle><path id="path20" d="M 160.62882335095986 227.43670496208566
c 0 27.85299693697872 -6.815094995218197 8.000328907430058 -14.815423902648256 8.000328907430058
S 130.99797554566334 255.28970189906437 130.99797554566334 227.43670496208566
s 6.815094995218197 -8.000328907430058 14.815423902648256 -8.000328907430058
S 160.62882335095986 199.58370802510694 160.62882335095986 227.43670496208566
z" fill="none" stroke="none"></path>
<circle cx="0" cy="0" r="1.558630032830506" fill="#707070">
  <animateMotion begin="-0.8955279803880485s" dur="1s" repeatCount="indefinite">
    <mpath xlink:href="#path20"></mpath>
  </animateMotion>
</circle><path id="path21" d="M 340.3559593063731 16.955970093504966
c 0 32.980455118812 -8.069685826943362 9.473109449020468 -17.54279527596383 9.473109449020468
S 305.2703687544454 49.93642521231697 305.2703687544454 16.955970093504966
s 8.069685826943362 -9.473109449020468 17.54279527596383 -9.473109449020468
S 340.3559593063731 -16.024485025307037 340.3559593063731 16.955970093504966
z" fill="none" stroke="none"></path>
<circle cx="0" cy="0" r="1.7971257374950813" fill="#707070">
  <animateMotion begin="-0.1429715460710148s" dur="1s" repeatCount="indefinite">
    <mpath xlink:href="#path21"></mpath>
  </animateMotion>
</circle><path id="path22" d="M 108.06309960185231 12.376887412917316
c 0 26.906263551998308 -6.583447464850648 7.728394850042067 -14.311842314892715 7.728394850042067
S 79.43941497206688 39.28315096491562 79.43941497206688 12.376887412917316
s 6.583447464850648 -7.728394850042067 14.311842314892715 -7.728394850042067
S 108.06309960185231 -14.529376139080991 108.06309960185231 12.376887412917316
z" fill="none" stroke="none"></path>
<circle cx="0" cy="0" r="2.790663375982661" fill="#187700">
  <animateMotion begin="-0.4685529899835983s" dur="1s" repeatCount="indefinite">
    <mpath xlink:href="#path22"></mpath>
  </animateMotion>
</circle><path id="path23" d="M 357.52177351672447 109.8641357373945
c 0 27.216857717784176 -6.659443909670596 7.817608067874179 -14.477051977544775 7.817608067874179
S 328.56766956163494 137.08099345517869 328.56766956163494 109.8641357373945
s 6.659443909670596 -7.817608067874179 14.477051977544775 -7.817608067874179
S 357.52177351672447 82.64727801961033 357.52177351672447 109.8641357373945
z" fill="none" stroke="none"></path>
<circle cx="0" cy="0" r="2.476919475373527" fill="#707070">
  <animateMotion begin="-0.7007853638060919s" dur="1s" repeatCount="indefinite">
    <mpath xlink:href="#path23"></mpath>
  </animateMotion>
</circle><path id="path24" d="M 617.6835844984817 62.507572157929744
c 0 19.692647314431415 -4.81841370459492 5.6563986966983855 -10.474812401293306 5.6563986966983855
S 596.733959695895 82.20021947236116 596.733959695895 62.507572157929744
s 4.81841370459492 -5.6563986966983855 10.474812401293306 -5.6563986966983855
S 617.6835844984817 42.81492484349833 617.6835844984817 62.507572157929744
z" fill="none" stroke="none"></path>
<circle cx="0" cy="0" r="2.6213547763464655" fill="#07d200">
  <animateMotion begin="-0.43071043030304934s" dur="1s" repeatCount="indefinite">
    <mpath xlink:href="#path24"></mpath>
  </animateMotion>
</circle><path id="path25" d="M 538.3113797926733 11.109990195512378
c 0 21.049942445728043 -5.150517832465372 6.0462600641984805 -11.196777896663852 6.0462600641984805
S 515.9178239993455 32.15993264124042 515.9178239993455 11.109990195512378
s 5.150517832465372 -6.0462600641984805 11.196777896663852 -6.0462600641984805
S 538.3113797926733 -9.939952250215665 538.3113797926733 11.109990195512378
z" fill="none" stroke="none"></path>
<circle cx="0" cy="0" r="2.672404672433003" fill="#000000">
  <animateMotion begin="-0.23485833879803408s" dur="1s" repeatCount="indefinite">
    <mpath xlink:href="#path25"></mpath>
  </animateMotion>
</circle><path id="path26" d="M 160.4166294338946 178.92846101969482
c 0 33.341384067100876 -8.157998229184257 9.576780529911954 -17.73477875909621 9.576780529911954
S 124.9470719157022 212.2698450867957 124.9470719157022 178.92846101969482
s 8.157998229184257 -9.576780529911954 17.73477875909621 -9.576780529911954
S 160.4166294338946 145.58707695259395 160.4166294338946 178.92846101969482
z" fill="none" stroke="none"></path>
<circle cx="0" cy="0" r="2.239254949420001" fill="#707070">
  <animateMotion begin="-0.8376410214002792s" dur="1s" repeatCount="indefinite">
    <mpath xlink:href="#path26"></mpath>
  </animateMotion>
</circle><path id="path27" d="M 706.8319355984324 97.20746415750887
c 0 25.90392941688991 -6.338195495621998 7.440490364425825 -13.778685860047823 7.440490364425825
S 679.2745638783367 123.11139357439878 679.2745638783367 97.20746415750887
s 6.338195495621998 -7.440490364425825 13.778685860047823 -7.440490364425825
S 706.8319355984324 71.30353474061896 706.8319355984324 97.20746415750887
z" fill="none" stroke="none"></path>
<circle cx="0" cy="0" r="2.1048737194940834" fill="#07d200">
  <animateMotion begin="-0.8988599136320623s" dur="1s" repeatCount="indefinite">
    <mpath xlink:href="#path27"></mpath>
  </animateMotion>
</circle><path id="path28" d="M 37.07015820008275 62.404925596103475
c 0 27.043858066325452 -6.617114207717928 7.7679166786253955 -14.385030886343324 7.7679166786253955
S 8.300096427396104 89.44878366242892 8.300096427396104 62.404925596103475
s 6.617114207717928 -7.7679166786253955 14.385030886343324 -7.7679166786253955
S 37.07015820008275 35.361067529778026 37.07015820008275 62.404925596103475
z" fill="none" stroke="none"></path>
<circle cx="0" cy="0" r="2.781770879397129" fill="#373737">
  <animateMotion begin="-0.6746582908681236s" dur="1s" repeatCount="indefinite">
    <mpath xlink:href="#path28"></mpath>
  </animateMotion>
</circle><path id="path29" d="M 57.27227985471927 74.4816018701551
c 0 30.57267441350192 -7.480547994793022 8.78151286345268 -16.2620608582457 8.78151286345268
S 24.748158138227875 105.05427628365703 24.748158138227875 74.4816018701551
s 7.480547994793022 -8.78151286345268 16.2620608582457 -8.78151286345268
S 57.27227985471927 43.90892745665318 57.27227985471927 74.4816018701551
z" fill="none" stroke="none"></path>
<circle cx="0" cy="0" r="1.7517955914941659" fill="#187700">
  <animateMotion begin="-0.6708165367119236s" dur="1s" repeatCount="indefinite">
    <mpath xlink:href="#path29"></mpath>
  </animateMotion>
</circle><path id="path30" d="M 686.9332045539537 184.5779102806156
c 0 23.414825896545015 -5.729159527878035 6.725535097943781 -12.454694625821816 6.725535097943781
S 662.02381530231 207.99273617716062 662.02381530231 184.5779102806156
s 5.729159527878035 -6.725535097943781 12.454694625821816 -6.725535097943781
S 686.9332045539537 161.1630843840706 686.9332045539537 184.5779102806156
z" fill="none" stroke="none"></path>
<circle cx="0" cy="0" r="1.9148779303440095" fill="#373737">
  <animateMotion begin="-0.4869330256464306s" dur="1s" repeatCount="indefinite">
    <mpath xlink:href="#path30"></mpath>
  </animateMotion>
</circle><path id="path31" d="M 89.83544030834601 158.38272609624968
c 0 19.17549192746709 -4.6918756843802445 5.507854064272462 -10.199729748652706 5.507854064272462
S 69.43598081104061 177.55821802371676 69.43598081104061 158.38272609624968
s 4.6918756843802445 -5.507854064272462 10.199729748652706 -5.507854064272462
S 89.83544030834601 139.2072341687826 89.83544030834601 158.38272609624968
z" fill="none" stroke="none"></path>
<circle cx="0" cy="0" r="2.573054163365978" fill="#373737">
  <animateMotion begin="-0.26879428828917096s" dur="1s" repeatCount="indefinite">
    <mpath xlink:href="#path31"></mpath>
  </animateMotion>
</circle><path id="path32" d="M 202.0080834281331 108.09988458469691
c 0 36.05671900300309 -8.822388692224159 10.356717160437057 -19.179105852661216 10.356717160437057
S 163.64987172281064 144.1566035877 163.64987172281064 108.09988458469691
s 8.822388692224159 -10.356717160437057 19.179105852661216 -10.356717160437057
S 202.0080834281331 72.04316558169381 202.0080834281331 108.09988458469691
z" fill="none" stroke="none"></path>
<circle cx="0" cy="0" r="2.7546679792049673" fill="#373737">
  <animateMotion begin="-0.6094015414816958s" dur="1s" repeatCount="indefinite">
    <mpath xlink:href="#path32"></mpath>
  </animateMotion>
</circle><path id="path33" d="M 190.40100258514207 60.554933342788445
c 0 34.384506281573124 -8.413230260384912 9.876400740451855 -18.289631000836767 9.876400740451855
S 153.8217405834685 94.93943962436157 153.8217405834685 60.554933342788445
s 8.413230260384912 -9.876400740451855 18.289631000836767 -9.876400740451855
S 190.40100258514207 26.17042706121532 190.40100258514207 60.554933342788445
z" fill="none" stroke="none"></path>
<circle cx="0" cy="0" r="2.019742157738669" fill="#373737">
  <animateMotion begin="-0.896603178750526s" dur="1s" repeatCount="indefinite">
    <mpath xlink:href="#path33"></mpath>
  </animateMotion>
</circle><path id="path34" d="M 650.15791509224 209.13325238873125
c 0 19.07005854337699 -4.66607815423054 5.4775700071402 -10.14364816137074 5.4775700071402
S 629.8706187694986 228.20331093210825 629.8706187694986 209.13325238873125
s 4.66607815423054 -5.4775700071402 10.14364816137074 -5.4775700071402
S 650.15791509224 190.06319384535425 650.15791509224 209.13325238873125
z" fill="none" stroke="none"></path>
<circle cx="0" cy="0" r="2.7322385231612607" fill="#07d200">
  <animateMotion begin="-0.07096721183971577s" dur="1s" repeatCount="indefinite">
    <mpath xlink:href="#path34"></mpath>
  </animateMotion>
</circle><path id="path35" d="M 26.281815578625356 211.98319619136203
c 0 29.437936442630317 -7.202899342345715 8.455577488840623 -15.658476831186338 8.455577488840623
S -5.03513808374732 241.42113263399233 -5.03513808374732 211.98319619136203
s 7.202899342345715 -8.455577488840623 15.658476831186338 -8.455577488840623
S 26.281815578625356 182.54525974873172 26.281815578625356 211.98319619136203
z" fill="none" stroke="none"></path>
<circle cx="0" cy="0" r="2.817363245344474" fill="#07d200">
  <animateMotion begin="-0.010808937090804216s" dur="1s" repeatCount="indefinite">
    <mpath xlink:href="#path35"></mpath>
  </animateMotion>
</circle><path id="path36" d="M 140.8805333495796 219.21260285290217
c 0 22.07886851772287 -5.402276339442829 6.341802659345931 -11.74407899878876 6.341802659345931
S 117.39237535200208 241.29147137062503 117.39237535200208 219.21260285290217
s 5.402276339442829 -6.341802659345931 11.74407899878876 -6.341802659345931
S 140.8805333495796 197.1337343351793 140.8805333495796 219.21260285290217
z" fill="none" stroke="none"></path>
<circle cx="0" cy="0" r="2.905042209527904" fill="#187700">
  <animateMotion begin="-0.22448348220899672s" dur="1s" repeatCount="indefinite">
    <mpath xlink:href="#path36"></mpath>
  </animateMotion>
</circle><path id="path37" d="M 516.2065312532362 201.31143998202174
c 0 22.574090109052403 -5.5234475798745235 6.484047158983137 -12.00749473885766 6.484047158983137
S 492.19154177552093 223.88553009107414 492.19154177552093 201.31143998202174
s 5.5234475798745235 -6.484047158983137 12.00749473885766 -6.484047158983137
S 516.2065312532362 178.73734987296933 516.2065312532362 201.31143998202174
z" fill="none" stroke="none"></path>
<circle cx="0" cy="0" r="1.5753954123242013" fill="#07d200">
  <animateMotion begin="-0.4965934950527162s" dur="1s" repeatCount="indefinite">
    <mpath xlink:href="#path37"></mpath>
  </animateMotion>
</circle><path id="path38" d="M 393.2606381471111 5.282600325037523
c 0 31.854281859636433 -7.794132795442956 9.149634151172167 -16.943766946615124 9.149634151172167
S 359.3731042538808 37.13688218467396 359.3731042538808 5.282600325037523
s 7.794132795442956 -9.149634151172167 16.943766946615124 -9.149634151172167
S 393.2606381471111 -26.57168153459891 393.2606381471111 5.282600325037523
z" fill="none" stroke="none"></path>
<circle cx="0" cy="0" r="2.0176070658212892" fill="#707070">
  <animateMotion begin="-0.9128715258674676s" dur="1s" repeatCount="indefinite">
    <mpath xlink:href="#path38"></mpath>
  </animateMotion>
</circle><path id="path39" d="M 460.4015256152476 134.62352445874427
c 0 33.44044664771896 -8.182236945718467 9.605234675408637 -17.787471621127104 9.605234675408637
S 424.82658237299336 168.0639711064632 424.82658237299336 134.62352445874427
s 8.182236945718467 -9.605234675408637 17.787471621127104 -9.605234675408637
S 460.4015256152476 101.18307781102531 460.4015256152476 134.62352445874427
z" fill="none" stroke="none"></path>
<circle cx="0" cy="0" r="2.792780008357453" fill="#07d200">
  <animateMotion begin="-0.6496840201427905s" dur="1s" repeatCount="indefinite">
    <mpath xlink:href="#path39"></mpath>
  </animateMotion>
</circle><path id="path40" d="M 666.9772509957488 82.31798178932124
c 0 27.347942693092147 -6.691517892990631 7.855260135249872 -14.546778028240503 7.855260135249872
S 637.8836949392678 109.66592448241339 637.8836949392678 82.31798178932124
s 6.691517892990631 -7.855260135249872 14.546778028240503 -7.855260135249872
S 666.9772509957488 54.97003909622909 666.9772509957488 82.31798178932124
z" fill="none" stroke="none"></path>
<circle cx="0" cy="0" r="2.603241153900604" fill="#187700">
  <animateMotion begin="-0.8150219204454796s" dur="1s" repeatCount="indefinite">
    <mpath xlink:href="#path40"></mpath>
  </animateMotion>
</circle><path id="path41" d="M 422.1498044185731 50.48358997604671
c 0 37.225262149042834 -9.108308823701968 10.692362532171877 -19.800671355873845 10.692362532171877
S 382.5484617068255 87.70885212508955 382.5484617068255 50.48358997604671
s 9.108308823701968 -10.692362532171877 19.800671355873845 -10.692362532171877
S 422.1498044185731 13.258327827003875 422.1498044185731 50.48358997604671
z" fill="none" stroke="none"></path>
<circle cx="0" cy="0" r="2.8297918278101255" fill="#373737">
  <animateMotion begin="-0.6290215279759279s" dur="1s" repeatCount="indefinite">
    <mpath xlink:href="#path41"></mpath>
  </animateMotion>
</circle></g>
</svg>
