<svg width="348.65px" height="147.8px"
  xmlns="http://www.w3.org/2000/svg" viewBox="75.67500000000001 1.0999999999999943 348.65 147.8" style="" preserveAspectRatio="xMidYMid">
  <defs>
    <linearGradient id="editing-glowing-gradient" x1="0.8146601955249185" x2="0.18533980447508147" y1="0.8885729807284856" y2="0.11142701927151444">
      <stop offset="0" stop-color="#67ff43"></stop>
      <stop offset="1" stop-color="#90ffff"></stop>
    </linearGradient>
    <filter id="editing-glowing" x="-100%" y="-100%" width="300%" height="300%">
      <feGaussianBlur in="SourceGraphic" result="blur" stdDeviation="10"></feGaussianBlur>
      <feMerge>
        <feMergeNode in="blur"></feMergeNode>
        <feMergeNode in="SourceGraphic"></feMergeNode>
      </feMerge>
    </filter>
  </defs>
  <g filter="url(#editing-glowing)">
    <g transform="translate(129.6799789071083, 107.15999984741211)">
      <path d="M24.26 0L0.90 0L0.90-6.85L12.54-38.02L1.41-38.02L1.41-46.85L24.13-46.85L24.13-39.23L13.12-8.38L24.26-8.38L24.26 0ZM48.96 0L25.60 0L25.60-6.85L37.25-38.02L26.11-38.02L26.11-46.85L48.83-46.85L48.83-39.23L37.82-8.38L48.96-8.38L48.96 0ZM65.73 0.51L65.73 0.51Q58.05 0.51 54.66-3.39L54.66-3.39L54.66-3.39Q51.26-7.30 51.26-15.36L51.26-15.36L51.26-29.82L51.26-29.82Q51.26-35.90 52.58-39.71L52.58-39.71L52.58-39.71Q53.89-43.52 56.99-45.44L56.99-45.44L56.99-45.44Q60.10-47.36 65.60-47.36L65.60-47.36L65.60-47.36Q71.62-47.36 75.39-44.22L75.39-44.22L75.39-44.22Q79.17-41.09 79.17-35.46L79.17-35.46L79.17-28.29L67.78-28.29L67.78-34.88L67.78-34.88Q67.78-36.74 67.26-37.73L67.26-37.73L67.26-37.73Q66.75-38.72 65.28-38.72L65.28-38.72L65.28-38.72Q62.53-38.72 62.53-34.82L62.53-34.82L62.53-12.10L62.53-12.10Q62.53-10.50 63.20-9.38L63.20-9.38L63.20-9.38Q63.87-8.26 65.22-8.26L65.22-8.26L65.22-8.26Q66.56-8.26 67.23-9.34L67.23-9.34L67.23-9.34Q67.90-10.43 67.84-12.16L67.84-12.16L67.78-20.03L79.17-20.03L79.17-11.84L79.17-11.84Q79.17-6.08 75.42-2.78L75.42-2.78L75.42-2.78Q71.68 0.51 65.73 0.51L65.73 0.51ZM97.15 0.51L97.15 0.51Q89.47 0.51 86.08-3.39L86.08-3.39L86.08-3.39Q82.69-7.30 82.69-15.36L82.69-15.36L82.69-29.82L82.69-29.82Q82.69-35.90 84-39.71L84-39.71L84-39.71Q85.31-43.52 88.42-45.44L88.42-45.44L88.42-45.44Q91.52-47.36 97.02-47.36L97.02-47.36L97.02-47.36Q103.04-47.36 106.82-44.22L106.82-44.22L106.82-44.22Q110.59-41.09 110.59-35.46L110.59-35.46L110.59-28.29L99.20-28.29L99.20-34.88L99.20-34.88Q99.20-36.74 98.69-37.73L98.69-37.73L98.69-37.73Q98.18-38.72 96.70-38.72L96.70-38.72L96.70-38.72Q93.95-38.72 93.95-34.82L93.95-34.82L93.95-12.10L93.95-12.10Q93.95-10.50 94.62-9.38L94.62-9.38L94.62-9.38Q95.30-8.26 96.64-8.26L96.64-8.26L96.64-8.26Q97.98-8.26 98.66-9.34L98.66-9.34L98.66-9.34Q99.33-10.43 99.26-12.16L99.26-12.16L99.20-20.03L110.59-20.03L110.59-11.84L110.59-11.84Q110.59-6.08 106.85-2.78L106.85-2.78L106.85-2.78Q103.10 0.51 97.15 0.51L97.15 0.51ZM114.50 0L114.50-46.85L125.44-46.85L125.44-41.41L125.44-41.41Q126.21-44.42 128.06-45.89L128.06-45.89L128.06-45.89Q129.92-47.36 133.31-47.36L133.31-47.36L133.31-47.36Q136.06-47.36 138.08-46.11L138.08-46.11L138.08-46.11Q140.10-44.86 140.93-42.69L140.93-42.69L140.93-42.69Q142.34-45.12 144.06-46.24L144.06-46.24L144.06-46.24Q145.79-47.36 148.86-47.36L148.86-47.36L148.86-47.36Q154.37-47.36 156.51-44L156.51-44L156.51-44Q158.66-40.64 158.66-34.24L158.66-34.24L158.53 0L147.26 0L147.26-34.43L147.26-34.43Q147.26-38.98 144.96-38.98L144.96-38.98L144.96-38.98Q143.36-38.98 142.66-37.41L142.66-37.41L142.66-37.41Q141.95-35.84 141.95-33.66L141.95-33.66L141.95 0L130.75 0L130.75-34.43L130.75-34.43Q130.75-36.42 130.34-37.63L130.34-37.63L130.34-37.63Q129.92-38.85 128.58-38.85L128.58-38.85L128.58-38.85Q126.85-38.85 126.14-37.15L126.14-37.15L126.14-37.15Q125.44-35.46 125.44-33.09L125.44-33.09L125.44 0L114.50 0ZM181.44-23.74L189.89 0L178.69 0L173.95-13.18L169.47 0L161.02 0L169.60-25.15L161.79-46.91L173.18-46.91L177.22-35.52L181.18-46.91L189.50-46.91L181.44-23.74ZM202.05 0.51L202.05 0.51Q197.63 0.51 195.97-1.34L195.97-1.34L195.97-1.34Q194.30-3.20 194.30-7.30L194.30-7.30L194.30-36.54L191.17-36.54L191.17-45.06L194.30-45.06L194.30-54.98L205.18-54.98L205.18-45.06L208.38-45.06L208.38-36.54L205.18-36.54L205.18-10.24L205.18-10.24Q205.18-9.02 205.38-8.45L205.38-8.45L205.38-8.45Q205.57-7.87 206.40-7.87L206.40-7.87L206.40-7.87Q207.04-7.87 207.62-7.94L207.62-7.94L207.62-7.94Q208.19-8 208.38-8L208.38-8L208.38-0.32L208.38-0.32Q207.42-0.06 205.60 0.22L205.60 0.22L205.60 0.22Q203.78 0.51 202.05 0.51L202.05 0.51ZM211.90 9.34L211.90-46.85L223.30-46.85L223.30-44.35L223.30-44.35Q225.73-47.36 230.02-47.36L230.02-47.36L230.02-47.36Q235.46-47.36 237.60-43.71L237.60-43.71L237.60-43.71Q239.74-40.06 239.74-33.60L239.74-33.60L239.74-16.26L239.74-16.26Q239.74-10.75 239.10-7.26L239.10-7.26L239.10-7.26Q238.46-3.78 236.29-1.63L236.29-1.63L236.29-1.63Q234.11 0.51 229.70 0.51L229.70 0.51L229.70 0.51Q225.47 0.51 223.30-1.86L223.30-1.86L223.30 9.34L211.90 9.34ZM225.98-8.19L225.98-8.19Q227.52-8.19 227.97-9.60L227.97-9.60L227.97-9.60Q228.42-11.01 228.42-13.70L228.42-13.70L228.42-33.60L228.42-33.60Q228.42-36.03 227.97-37.31L227.97-37.31L227.97-37.31Q227.52-38.59 225.92-38.59L225.92-38.59L225.92-38.59Q223.30-38.59 223.30-33.73L223.30-33.73L223.30-13.18L223.30-13.18Q223.30-10.82 223.84-9.50L223.84-9.50L223.84-9.50Q224.38-8.19 225.98-8.19L225.98-8.19Z" fill="url(#editing-glowing-gradient)"></path>
    </g>
  </g>
  <style>text {
  font-size: 64px;
  font-family: Arial Black;
  dominant-baseline: central;
  text-anchor: middle;
}</style>
</svg>
